<svg xmlns="http://www.w3.org/2000/svg" viewBox="0 0 500 500" width="32" height="32">
  <path d="M274.63209,235.10135c10.58564,0 20.15258,-0.04429 28.7894,-0.08858c3.49902,0 6.46655,-1.24016 8.99115,-3.76477c2.48031,-2.48031 3.72047,-5.49214 3.72047,-9.03545c0,-3.41044 -1.15157,-6.33367 -3.49902,-8.7697c-2.34744,-2.48031 -5.18209,-3.80906 -8.54824,-3.98622h-21.43704l-6.1565,6.33367c-3.98623,3.94194 -6.46655,6.55513 -7.48525,7.83957c-1.72736,2.12599 -2.5689,3.98622 -2.5689,5.625c0,2.21456 0.75295,3.80906 2.30315,4.73918c1.28445,0.75296 3.23327,1.10729 5.89075,1.10729zM267.54546,177.61113l6.37796,-6.33367c6.86516,-6.82087 10.09843,-11.42718 9.7441,-13.77462c-0.26575,-1.72736 -0.84154,-3.01182 -1.77166,-3.85335c-1.10729,-1.0187 -2.87894,-1.59449 -5.22639,-1.72736h-6.42225c-12.71163,-0.04429 -20.72837,-0.04429 -24.09452,0c-0.88583,0.04429 -1.99312,0.22146 -3.32186,0.53149c-2.74607,0.75296 -5.00493,2.30315 -6.77658,4.6063c-1.72736,2.25886 -2.61319,4.87205 -2.61319,7.75099c0,3.54331 1.24016,6.55512 3.72047,9.03544c2.48031,2.52461 5.49214,3.76477 8.99115,3.76477zM286.325,205.69187c11.73722,0 17.71656,0 17.89372,0.04429c4.38485,0.22146 8.10532,1.90453 11.11714,5.09351c3.01182,3.18898 4.51772,6.99804 4.51772,11.38289c0,4.56201 -1.59449,8.45965 -4.82776,11.69293c-3.23327,3.23327 -7.08662,4.87205 -11.60435,4.87205c-0.13287,0 -19.00101,0.04429 -56.6044,0.08858c-4.82776,-0.04429 -8.90257,-1.86024 -12.13584,-5.44785c-3.05611,-3.41044 -4.42914,-7.52954 -4.16339,-12.313c0.26574,-4.73918 2.08169,-8.81398 5.49213,-12.13584l27.7707,-27.63783h-17.62798c-4.56202,0 -8.41537,-1.59449 -11.60435,-4.82776c-3.23326,-3.23327 -4.82776,-7.13092 -4.82776,-11.69293c0,-3.72048 1.15157,-7.08662 3.41044,-10.05415c2.25886,-2.96752 5.1378,-4.91634 8.7254,-5.89075c1.63878,-0.44291 3.05611,-0.66437 4.25197,-0.66437c3.32186,-0.04429 22.50003,-0.04429 57.53452,-0.04429h0.13287c4.73918,0.13287 8.68112,1.94882 11.8258,5.44785c2.83465,3.14469 4.25197,6.86517 4.25197,11.07285c0,4.87205 -1.81594,8.94686 -5.40355,12.22442zM207.96704,233.33002c-0.10465,-0.08014 -0.20332,-0.16672 -0.29602,-0.25975c-0.09312,-0.09303 -0.17983,-0.19175 -0.26014,-0.29615c-0.07988,-0.10439 -0.15271,-0.21358 -0.21849,-0.32754c-0.06579,-0.11396 -0.12387,-0.23173 -0.17428,-0.3533c-0.05041,-0.12157 -0.0927,-0.24592 -0.12687,-0.37303c-0.03417,-0.12708 -0.0598,-0.25585 -0.07689,-0.3863c-0.01708,-0.13045 -0.02563,-0.26148 -0.02563,-0.39309v-75.28626c0,-0.13161 0.00854,-0.26263 0.02563,-0.39309c0.01708,-0.13045 0.04272,-0.25922 0.07689,-0.3863c0.03417,-0.12712 0.07646,-0.25147 0.12687,-0.37303c0.05041,-0.12157 0.1085,-0.23933 0.17428,-0.3533c0.06579,-0.11396 0.13861,-0.22315 0.21849,-0.32754c0.0803,-0.10439 0.16702,-0.20311 0.26014,-0.29615c0.0927,-0.09303 0.19137,-0.17962 0.29602,-0.25975c0.10423,-0.08009 0.21336,-0.15303 0.32742,-0.21881l65.19983,-37.64294c0.11395,-0.06579 0.23172,-0.12387 0.35329,-0.17428c0.12157,-0.05041 0.2459,-0.0927 0.37301,-0.12687c0.1271,-0.03417 0.25588,-0.0598 0.38634,-0.07689c0.13046,-0.01708 0.26148,-0.02563 0.39307,-0.02563c0.13159,0 0.26261,0.00854 0.39307,0.02563c0.13046,0.01708 0.25924,0.04272 0.38634,0.07689c0.1271,0.03417 0.25144,0.07646 0.37301,0.12687c0.12157,0.05041 0.23934,0.1085 0.35329,0.17428l65.19983,37.64294c0.11405,0.06579 0.22319,0.13872 0.32742,0.21881c0.10465,0.08014 0.20332,0.16672 0.29602,0.25975c0.09312,0.09303 0.17983,0.19175 0.26014,0.29615c0.07988,0.10439 0.15271,0.21358 0.21849,0.32754c0.06579,0.11396 0.12387,0.23173 0.17428,0.3533c0.05041,0.12157 0.0927,0.24592 0.12687,0.37303c0.03417,0.12708 0.0598,0.25585 0.07689,0.3863c0.01708,0.13045 0.02563,0.26148 0.02563,0.39309v75.28626c0,0.13161 -0.00854,0.26263 -0.02563,0.39309c-0.01708,0.13045 -0.04272,0.25922 -0.07689,0.3863c-0.03417,0.12712 -0.07646,0.25147 -0.12687,0.37303c-0.05041,0.12157 -0.1085,0.23933 -0.17428,0.3533c-0.06579,0.11396 -0.13861,0.22315 -0.21849,0.32754c-0.0803,0.10439 -0.16702,0.20311 -0.26014,0.29615c-0.0927,0.09303 -0.19137,0.17962 -0.29602,0.25975c-0.10423,0.08009 -0.21336,0.15303 -0.32742,0.21881l-65.19983,37.64294c-0.11395,0.06579 -0.23172,0.12387 -0.35329,0.17428c-0.12157,0.05041 -0.2459,0.0927 -0.37301,0.12687c-0.1271,0.03417 -0.25588,0.0598 -0.38634,0.07689c-0.13046,0.01708 -0.26148,0.02563 -0.39307,0.02563c-0.13159,0 -0.26261,-0.00854 -0.39307,-0.02563c-0.13046,-0.01708 -0.25924,-0.04272 -0.38634,-0.07689c-0.1271,-0.03417 -0.25144,-0.07646 -0.37301,-0.12687c-0.12157,-0.05041 -0.23934,-0.1085 -0.35329,-0.17428l-65.19983,-37.64294c-0.11405,-0.06579 -0.22319,-0.13872 -0.32742,-0.21881zM275,265.10672l62.18837,-35.9045v-71.809l-62.18837,-35.9045l-62.18837,35.9045v71.809z" data-paper-data="{&quot;isPathIcon&quot;:true}" id="element-id-72905"></path>
  </svg>